<?xml version="1.0" encoding="UTF-8" standalone="no"?>
<!DOCTYPE svg PUBLIC "-//W3C//DTD SVG 1.1//EN"
 "http://www.w3.org/Graphics/SVG/1.1/DTD/svg11.dtd">
<!-- Generated by graphviz version 2.47.0 (20210316.0004)
 -->
<!-- Title: dbml Pages: 1 -->
<svg width="1728pt" height="1734pt"
 viewBox="0.00 0.00 1728.33 1734.18" xmlns="http://www.w3.org/2000/svg" xmlns:xlink="http://www.w3.org/1999/xlink">
<g id="graph0" class="graph" transform="scale(1 1) rotate(0) translate(4 1730.18)">
<title>dbml</title>
<!-- ai_recommendations_by_placements -->
<g id="ai_recommendations_by_placements" class="node">
<title>ai_recommendations_by_placements</title>
<ellipse fill="none" stroke="black" stroke-width="0" cx="556.49" cy="-1214.24" rx="480.67" ry="511.89"/>
<polygon fill="#1d71b8" stroke="transparent" points="218.49,-1514.24 218.49,-1574.24 894.49,-1574.24 894.49,-1514.24 218.49,-1514.24"/>
<polygon fill="none" stroke="#29235c" points="218.49,-1514.24 218.49,-1574.24 894.49,-1574.24 894.49,-1514.24 218.49,-1514.24"/>
<text text-anchor="start" x="229.29" y="-1535.44" font-family="Helvetica,sans-Serif" font-weight="bold" font-size="32.00" fill="#ffffff"> &#160;&#160;&#160;&#160;&#160;&#160;ai_recommendations_by_placements &#160;&#160;&#160;&#160;&#160;&#160;</text>
<polygon fill="#e7e2dd" stroke="transparent" points="218.49,-1454.24 218.49,-1514.24 894.49,-1514.24 894.49,-1454.24 218.49,-1454.24"/>
<polygon fill="none" stroke="#29235c" points="218.49,-1454.24 218.49,-1514.24 894.49,-1514.24 894.49,-1454.24 218.49,-1454.24"/>
<text text-anchor="start" x="229.49" y="-1474.44" font-family="Helvetica,sans-Serif" font-size="32.00" fill="#29235c">id &#160;&#160;&#160;</text>
<text text-anchor="start" x="799.92" y="-1475.44" font-family="Helvetica,sans-Serif" font-style="italic" font-size="32.00" fill="#29235c">TYPE</text>
<polygon fill="#e7e2dd" stroke="transparent" points="218.49,-1394.24 218.49,-1454.24 894.49,-1454.24 894.49,-1394.24 218.49,-1394.24"/>
<polygon fill="none" stroke="#29235c" points="218.49,-1394.24 218.49,-1454.24 894.49,-1454.24 894.49,-1394.24 218.49,-1394.24"/>
<text text-anchor="start" x="229.49" y="-1414.44" font-family="Helvetica,sans-Serif" font-size="32.00" fill="#29235c">client_id &#160;&#160;&#160;</text>
<text text-anchor="start" x="799.92" y="-1415.44" font-family="Helvetica,sans-Serif" font-style="italic" font-size="32.00" fill="#29235c">TYPE</text>
<polygon fill="#e7e2dd" stroke="transparent" points="218.49,-1334.24 218.49,-1394.24 894.49,-1394.24 894.49,-1334.24 218.49,-1334.24"/>
<polygon fill="none" stroke="#29235c" points="218.49,-1334.24 218.49,-1394.24 894.49,-1394.24 894.49,-1334.24 218.49,-1334.24"/>
<text text-anchor="start" x="229.49" y="-1354.44" font-family="Helvetica,sans-Serif" font-size="32.00" fill="#29235c">channel_id &#160;&#160;&#160;</text>
<text text-anchor="start" x="799.92" y="-1355.44" font-family="Helvetica,sans-Serif" font-style="italic" font-size="32.00" fill="#29235c">TYPE</text>
<polygon fill="#e7e2dd" stroke="transparent" points="218.49,-1274.24 218.49,-1334.24 894.49,-1334.24 894.49,-1274.24 218.49,-1274.24"/>
<polygon fill="none" stroke="#29235c" points="218.49,-1274.24 218.49,-1334.24 894.49,-1334.24 894.49,-1274.24 218.49,-1274.24"/>
<text text-anchor="start" x="229.49" y="-1294.44" font-family="Helvetica,sans-Serif" font-size="32.00" fill="#29235c">placement_id &#160;&#160;&#160;</text>
<text text-anchor="start" x="799.92" y="-1295.44" font-family="Helvetica,sans-Serif" font-style="italic" font-size="32.00" fill="#29235c">TYPE</text>
<polygon fill="#e7e2dd" stroke="transparent" points="218.49,-1214.24 218.49,-1274.24 894.49,-1274.24 894.49,-1214.24 218.49,-1214.24"/>
<polygon fill="none" stroke="#29235c" points="218.49,-1214.24 218.49,-1274.24 894.49,-1274.24 894.49,-1214.24 218.49,-1214.24"/>
<text text-anchor="start" x="229.49" y="-1234.44" font-family="Helvetica,sans-Serif" font-size="32.00" fill="#29235c">date_from &#160;&#160;&#160;</text>
<text text-anchor="start" x="799.92" y="-1235.44" font-family="Helvetica,sans-Serif" font-style="italic" font-size="32.00" fill="#29235c">TYPE</text>
<polygon fill="#e7e2dd" stroke="transparent" points="218.49,-1154.24 218.49,-1214.24 894.49,-1214.24 894.49,-1154.24 218.49,-1154.24"/>
<polygon fill="none" stroke="#29235c" points="218.49,-1154.24 218.49,-1214.24 894.49,-1214.24 894.49,-1154.24 218.49,-1154.24"/>
<text text-anchor="start" x="229.49" y="-1174.44" font-family="Helvetica,sans-Serif" font-size="32.00" fill="#29235c">date_to &#160;&#160;&#160;</text>
<text text-anchor="start" x="799.92" y="-1175.44" font-family="Helvetica,sans-Serif" font-style="italic" font-size="32.00" fill="#29235c">TYPE</text>
<polygon fill="#e7e2dd" stroke="transparent" points="218.49,-1094.24 218.49,-1154.24 894.49,-1154.24 894.49,-1094.24 218.49,-1094.24"/>
<polygon fill="none" stroke="#29235c" points="218.49,-1094.24 218.49,-1154.24 894.49,-1154.24 894.49,-1094.24 218.49,-1094.24"/>
<text text-anchor="start" x="229.49" y="-1114.44" font-family="Helvetica,sans-Serif" font-size="32.00" fill="#29235c">recomendation &#160;&#160;&#160;</text>
<text text-anchor="start" x="799.92" y="-1115.44" font-family="Helvetica,sans-Serif" font-style="italic" font-size="32.00" fill="#29235c">TYPE</text>
<polygon fill="#e7e2dd" stroke="transparent" points="218.49,-1034.24 218.49,-1094.24 894.49,-1094.24 894.49,-1034.24 218.49,-1034.24"/>
<polygon fill="none" stroke="#29235c" points="218.49,-1034.24 218.49,-1094.24 894.49,-1094.24 894.49,-1034.24 218.49,-1034.24"/>
<text text-anchor="start" x="229.49" y="-1054.44" font-family="Helvetica,sans-Serif" font-size="32.00" fill="#29235c">recomendation_detail &#160;&#160;&#160;</text>
<text text-anchor="start" x="799.92" y="-1055.44" font-family="Helvetica,sans-Serif" font-style="italic" font-size="32.00" fill="#29235c">TYPE</text>
<polygon fill="#e7e2dd" stroke="transparent" points="218.49,-974.24 218.49,-1034.24 894.49,-1034.24 894.49,-974.24 218.49,-974.24"/>
<polygon fill="none" stroke="#29235c" points="218.49,-974.24 218.49,-1034.24 894.49,-1034.24 894.49,-974.24 218.49,-974.24"/>
<text text-anchor="start" x="229.49" y="-994.44" font-family="Helvetica,sans-Serif" font-size="32.00" fill="#29235c">promt_description_id &#160;&#160;&#160;</text>
<text text-anchor="start" x="799.92" y="-995.44" font-family="Helvetica,sans-Serif" font-style="italic" font-size="32.00" fill="#29235c">TYPE</text>
<polygon fill="#e7e2dd" stroke="transparent" points="218.49,-914.24 218.49,-974.24 894.49,-974.24 894.49,-914.24 218.49,-914.24"/>
<polygon fill="none" stroke="#29235c" points="218.49,-914.24 218.49,-974.24 894.49,-974.24 894.49,-914.24 218.49,-914.24"/>
<text text-anchor="start" x="229.49" y="-934.44" font-family="Helvetica,sans-Serif" font-size="32.00" fill="#29235c">created_at &#160;&#160;&#160;</text>
<text text-anchor="start" x="799.92" y="-935.44" font-family="Helvetica,sans-Serif" font-style="italic" font-size="32.00" fill="#29235c">TYPE</text>
<polygon fill="#e7e2dd" stroke="transparent" points="218.49,-854.24 218.49,-914.24 894.49,-914.24 894.49,-854.24 218.49,-854.24"/>
<polygon fill="none" stroke="#29235c" points="218.49,-854.24 218.49,-914.24 894.49,-914.24 894.49,-854.24 218.49,-854.24"/>
<text text-anchor="start" x="229.49" y="-874.44" font-family="Helvetica,sans-Serif" font-size="32.00" fill="#29235c">is_validate &#160;&#160;&#160;</text>
<text text-anchor="start" x="799.92" y="-875.44" font-family="Helvetica,sans-Serif" font-style="italic" font-size="32.00" fill="#29235c">TYPE</text>
<polygon fill="none" stroke="#29235c" stroke-width="2" points="217.49,-853.24 217.49,-1575.24 895.49,-1575.24 895.49,-853.24 217.49,-853.24"/>
</g>
<!-- promt_description -->
<g id="promt_description" class="node">
<title>promt_description</title>
<ellipse fill="none" stroke="black" stroke-width="0" cx="1434.66" cy="-688.24" rx="285.84" ry="214.92"/>
<polygon fill="#1d71b8" stroke="transparent" points="1234.66,-778.24 1234.66,-838.24 1634.66,-838.24 1634.66,-778.24 1234.66,-778.24"/>
<polygon fill="none" stroke="#29235c" points="1234.66,-778.24 1234.66,-838.24 1634.66,-838.24 1634.66,-778.24 1234.66,-778.24"/>
<text text-anchor="start" x="1245.28" y="-799.44" font-family="Helvetica,sans-Serif" font-weight="bold" font-size="32.00" fill="#ffffff"> &#160;&#160;&#160;&#160;&#160;&#160;promt_description &#160;&#160;&#160;&#160;&#160;&#160;</text>
<polygon fill="#e7e2dd" stroke="transparent" points="1234.66,-718.24 1234.66,-778.24 1634.66,-778.24 1634.66,-718.24 1234.66,-718.24"/>
<polygon fill="none" stroke="#29235c" points="1234.66,-718.24 1234.66,-778.24 1634.66,-778.24 1634.66,-718.24 1234.66,-718.24"/>
<text text-anchor="start" x="1245.66" y="-738.44" font-family="Helvetica,sans-Serif" font-size="32.00" fill="#29235c">id &#160;&#160;&#160;</text>
<text text-anchor="start" x="1540.09" y="-739.44" font-family="Helvetica,sans-Serif" font-style="italic" font-size="32.00" fill="#29235c">TYPE</text>
<polygon fill="#e7e2dd" stroke="transparent" points="1234.66,-658.24 1234.66,-718.24 1634.66,-718.24 1634.66,-658.24 1234.66,-658.24"/>
<polygon fill="none" stroke="#29235c" points="1234.66,-658.24 1234.66,-718.24 1634.66,-718.24 1634.66,-658.24 1234.66,-658.24"/>
<text text-anchor="start" x="1245.66" y="-678.44" font-family="Helvetica,sans-Serif" font-size="32.00" fill="#29235c">request_text &#160;&#160;&#160;</text>
<text text-anchor="start" x="1540.09" y="-679.44" font-family="Helvetica,sans-Serif" font-style="italic" font-size="32.00" fill="#29235c">TYPE</text>
<polygon fill="#e7e2dd" stroke="transparent" points="1234.66,-598.24 1234.66,-658.24 1634.66,-658.24 1634.66,-598.24 1234.66,-598.24"/>
<polygon fill="none" stroke="#29235c" points="1234.66,-598.24 1234.66,-658.24 1634.66,-658.24 1634.66,-598.24 1234.66,-598.24"/>
<text text-anchor="start" x="1245.66" y="-618.44" font-family="Helvetica,sans-Serif" font-size="32.00" fill="#29235c">response_text &#160;&#160;&#160;</text>
<text text-anchor="start" x="1540.09" y="-619.44" font-family="Helvetica,sans-Serif" font-style="italic" font-size="32.00" fill="#29235c">TYPE</text>
<polygon fill="#e7e2dd" stroke="transparent" points="1234.66,-538.24 1234.66,-598.24 1634.66,-598.24 1634.66,-538.24 1234.66,-538.24"/>
<polygon fill="none" stroke="#29235c" points="1234.66,-538.24 1234.66,-598.24 1634.66,-598.24 1634.66,-538.24 1234.66,-538.24"/>
<text text-anchor="start" x="1245.66" y="-558.44" font-family="Helvetica,sans-Serif" font-size="32.00" fill="#29235c">created_at &#160;&#160;&#160;</text>
<text text-anchor="start" x="1540.09" y="-559.44" font-family="Helvetica,sans-Serif" font-style="italic" font-size="32.00" fill="#29235c">TYPE</text>
<polygon fill="none" stroke="#29235c" stroke-width="2" points="1233.66,-537.24 1233.66,-839.24 1635.66,-839.24 1635.66,-537.24 1233.66,-537.24"/>
</g>
<!-- ai_recommendations_by_placements&#45;&gt;promt_description -->
<!-- ai_recommendations_by_placements&#45;&gt;promt_description -->
<g id="edge2" class="edge">
<title>ai_recommendations_by_placements:e&#45;&gt;promt_description:w</title>
<path fill="none" stroke="#29235c" stroke-width="3" d="M895.49,-1004.24C1080.5,-1004.24 1046.52,-757.65 1223.4,-748.5"/>
<polygon fill="#29235c" stroke="#29235c" stroke-width="3" points="1223.75,-751.99 1233.66,-748.24 1223.57,-745 1223.75,-751.99"/>
<text text-anchor="middle" x="1224.76" y="-757.84" font-family="Helvetica,sans-Serif" font-size="32.00" fill="#29235c">1</text>
<text text-anchor="middle" x="904.39" y="-1013.84" font-family="Helvetica,sans-Serif" font-size="32.00" fill="#29235c">1</text>
</g>
<!-- ai_recommendations_by_placements_queue -->
<g id="ai_recommendations_by_placements_queue" class="node">
<title>ai_recommendations_by_placements_queue</title>
<ellipse fill="none" stroke="black" stroke-width="0" cx="556.49" cy="-342.24" rx="556.49" ry="342.48"/>
<polygon fill="#1d71b8" stroke="transparent" points="165.49,-522.24 165.49,-582.24 948.49,-582.24 948.49,-522.24 165.49,-522.24"/>
<polygon fill="none" stroke="#29235c" points="165.49,-522.24 165.49,-582.24 948.49,-582.24 948.49,-522.24 165.49,-522.24"/>
<text text-anchor="start" x="176.43" y="-543.44" font-family="Helvetica,sans-Serif" font-weight="bold" font-size="32.00" fill="#ffffff"> &#160;&#160;&#160;&#160;&#160;&#160;ai_recommendations_by_placements_queue &#160;&#160;&#160;&#160;&#160;&#160;</text>
<polygon fill="#e7e2dd" stroke="transparent" points="165.49,-462.24 165.49,-522.24 948.49,-522.24 948.49,-462.24 165.49,-462.24"/>
<polygon fill="none" stroke="#29235c" points="165.49,-462.24 165.49,-522.24 948.49,-522.24 948.49,-462.24 165.49,-462.24"/>
<text text-anchor="start" x="176.49" y="-482.44" font-family="Helvetica,sans-Serif" font-size="32.00" fill="#29235c">id &#160;&#160;&#160;</text>
<text text-anchor="start" x="853.92" y="-483.44" font-family="Helvetica,sans-Serif" font-style="italic" font-size="32.00" fill="#29235c">TYPE</text>
<polygon fill="#e7e2dd" stroke="transparent" points="165.49,-402.24 165.49,-462.24 948.49,-462.24 948.49,-402.24 165.49,-402.24"/>
<polygon fill="none" stroke="#29235c" points="165.49,-402.24 165.49,-462.24 948.49,-462.24 948.49,-402.24 165.49,-402.24"/>
<text text-anchor="start" x="176.49" y="-422.44" font-family="Helvetica,sans-Serif" font-size="32.00" fill="#29235c">date &#160;&#160;&#160;</text>
<text text-anchor="start" x="853.92" y="-423.44" font-family="Helvetica,sans-Serif" font-style="italic" font-size="32.00" fill="#29235c">TYPE</text>
<polygon fill="#e7e2dd" stroke="transparent" points="165.49,-342.24 165.49,-402.24 948.49,-402.24 948.49,-342.24 165.49,-342.24"/>
<polygon fill="none" stroke="#29235c" points="165.49,-342.24 165.49,-402.24 948.49,-402.24 948.49,-342.24 165.49,-342.24"/>
<text text-anchor="start" x="176.49" y="-362.44" font-family="Helvetica,sans-Serif" font-size="32.00" fill="#29235c">client_id &#160;&#160;&#160;</text>
<text text-anchor="start" x="853.92" y="-363.44" font-family="Helvetica,sans-Serif" font-style="italic" font-size="32.00" fill="#29235c">TYPE</text>
<polygon fill="#e7e2dd" stroke="transparent" points="165.49,-282.24 165.49,-342.24 948.49,-342.24 948.49,-282.24 165.49,-282.24"/>
<polygon fill="none" stroke="#29235c" points="165.49,-282.24 165.49,-342.24 948.49,-342.24 948.49,-282.24 165.49,-282.24"/>
<text text-anchor="start" x="176.49" y="-302.44" font-family="Helvetica,sans-Serif" font-size="32.00" fill="#29235c">status &#160;&#160;&#160;</text>
<text text-anchor="start" x="853.92" y="-303.44" font-family="Helvetica,sans-Serif" font-style="italic" font-size="32.00" fill="#29235c">TYPE</text>
<polygon fill="#e7e2dd" stroke="transparent" points="165.49,-222.24 165.49,-282.24 948.49,-282.24 948.49,-222.24 165.49,-222.24"/>
<polygon fill="none" stroke="#29235c" points="165.49,-222.24 165.49,-282.24 948.49,-282.24 948.49,-222.24 165.49,-222.24"/>
<text text-anchor="start" x="176.49" y="-242.44" font-family="Helvetica,sans-Serif" font-size="32.00" fill="#29235c">started_at &#160;&#160;&#160;</text>
<text text-anchor="start" x="853.92" y="-243.44" font-family="Helvetica,sans-Serif" font-style="italic" font-size="32.00" fill="#29235c">TYPE</text>
<polygon fill="#e7e2dd" stroke="transparent" points="165.49,-162.24 165.49,-222.24 948.49,-222.24 948.49,-162.24 165.49,-162.24"/>
<polygon fill="none" stroke="#29235c" points="165.49,-162.24 165.49,-222.24 948.49,-222.24 948.49,-162.24 165.49,-162.24"/>
<text text-anchor="start" x="176.49" y="-182.44" font-family="Helvetica,sans-Serif" font-size="32.00" fill="#29235c">finished_at &#160;&#160;&#160;</text>
<text text-anchor="start" x="853.92" y="-183.44" font-family="Helvetica,sans-Serif" font-style="italic" font-size="32.00" fill="#29235c">TYPE</text>
<polygon fill="#e7e2dd" stroke="transparent" points="165.49,-102.24 165.49,-162.24 948.49,-162.24 948.49,-102.24 165.49,-102.24"/>
<polygon fill="none" stroke="#29235c" points="165.49,-102.24 165.49,-162.24 948.49,-162.24 948.49,-102.24 165.49,-102.24"/>
<text text-anchor="start" x="176.49" y="-122.44" font-family="Helvetica,sans-Serif" font-size="32.00" fill="#29235c">promt_description_id &#160;&#160;&#160;</text>
<text text-anchor="start" x="853.92" y="-123.44" font-family="Helvetica,sans-Serif" font-style="italic" font-size="32.00" fill="#29235c">TYPE</text>
<polygon fill="none" stroke="#29235c" stroke-width="2" points="163.99,-101.24 163.99,-583.24 948.99,-583.24 948.99,-101.24 163.99,-101.24"/>
</g>
<!-- ai_recommendations_by_placements_queue&#45;&gt;promt_description -->
<!-- ai_recommendations_by_placements_queue&#45;&gt;promt_description -->
<g id="edge4" class="edge">
<title>ai_recommendations_by_placements_queue:e&#45;&gt;promt_description:w</title>
<path fill="none" stroke="#29235c" stroke-width="3" d="M949.49,-132.24C1247.46,-132.24 939.54,-733.89 1223.31,-747.99"/>
<polygon fill="#29235c" stroke="#29235c" stroke-width="3" points="1223.57,-751.5 1233.66,-748.24 1223.75,-744.5 1223.57,-751.5"/>
<text text-anchor="middle" x="1242.55" y="-757.84" font-family="Helvetica,sans-Serif" font-size="32.00" fill="#29235c">1</text>
<text text-anchor="middle" x="958.39" y="-103.44" font-family="Helvetica,sans-Serif" font-size="32.00" fill="#29235c">1</text>
</g>
</g>
</svg>
